HIERARCHY
ROOT Hips
{
	OFFSET -0.001795 -0.223333 0.028219
	CHANNELS 6 Xposition Yposition Zposition Zrotation Yrotation Xrotation 
	JOINT LeftUpLeg
	{
		OFFSET 0.069520 -0.091406 -0.006815
		CHANNELS 3 Zrotation Yrotation Xrotation
		JOINT LeftLeg
		{
			OFFSET 0.034277 -0.375199 -0.004496
			CHANNELS 3 Zrotation Yrotation Xrotation
			JOINT LeftFoot
			{
				OFFSET -0.013596 -0.397961 -0.043693
				CHANNELS 3 Zrotation Yrotation Xrotation
				JOINT LeftToe
				{
					OFFSET 0.026358 -0.055791 0.119288
					CHANNELS 3 Zrotation Yrotation Xrotation
					End Site
					{
						OFFSET 0.000000 0.000000 0.000000
					}
				}
			}
		}
	}
	JOINT RightUpLeg
	{
		OFFSET -0.067670 -0.090522 -0.004320
		CHANNELS 3 Zrotation Yrotation Xrotation
		JOINT RightLeg
		{
			OFFSET -0.038290 -0.382569 -0.008850
			CHANNELS 3 Zrotation Yrotation Xrotation
			JOINT RightFoot
			{
				OFFSET 0.015774 -0.398415 -0.042312
				CHANNELS 3 Zrotation Yrotation Xrotation
				JOINT RightToe
				{
					OFFSET -0.025372 -0.048144 0.123348
					CHANNELS 3 Zrotation Yrotation Xrotation
					End Site
					{
						OFFSET 0.000000 0.000000 0.000000
					}
				}
			}
		}
	}
	JOINT Spine
	{
		OFFSET -0.002533 0.108963 -0.026696
		CHANNELS 3 Zrotation Yrotation Xrotation
		JOINT Spine1
		{
			OFFSET 0.005487 0.135180 0.001092
			CHANNELS 3 Zrotation Yrotation Xrotation
			JOINT Spine2
			{
				OFFSET 0.001457 0.052922 0.025425
				CHANNELS 3 Zrotation Yrotation Xrotation
				JOINT Neck
				{
					OFFSET -0.002778 0.213870 -0.042857
					CHANNELS 3 Zrotation Yrotation Xrotation
					JOINT Head
					{
						OFFSET 0.005152 0.064970 0.051349
						CHANNELS 3 Zrotation Yrotation Xrotation
						End Site
						{
							OFFSET 0.000000 0.000000 0.000000
						}
					}
				}
				JOINT LeftShoulder
				{
					OFFSET 0.078845 0.121749 -0.034090
					CHANNELS 3 Zrotation Yrotation Xrotation
					JOINT LeftArm
					{
						OFFSET 0.090977 0.030469 -0.008868
						CHANNELS 3 Zrotation Yrotation Xrotation
						JOINT LeftForeArm
						{
							OFFSET 0.259612 -0.012772 -0.027456
							CHANNELS 3 Zrotation Yrotation Xrotation
							JOINT LeftHand
							{
								OFFSET 0.249234 0.008986 -0.001171
								CHANNELS 3 Zrotation Yrotation Xrotation
								End Site
								{
									OFFSET 0.000000 0.000000 0.000000
								}
							}
						}
					}
				}
				JOINT RightShoulder
				{
					OFFSET -0.081759 0.118833 -0.038615
					CHANNELS 3 Zrotation Yrotation Xrotation
					JOINT RightArm
					{
						OFFSET -0.096012 0.032551 -0.009143
						CHANNELS 3 Zrotation Yrotation Xrotation
						JOINT RightForeArm
						{
							OFFSET -0.253742 -0.013329 -0.021401
							CHANNELS 3 Zrotation Yrotation Xrotation
							JOINT RightHand
							{
								OFFSET -0.255298 0.007772 -0.005559
								CHANNELS 3 Zrotation Yrotation Xrotation
								End Site
								{
									OFFSET 0.000000 0.000000 0.000000
								}
							}
						}
					}
				}
			}
		}
	}
}
MOTION
Frames: 5
Frame Time: 0.050000
-0.593389 0.889469 0.322964 -7.887168 62.399895 -3.935209 -0.593562 -0.962942 -10.278915 -11.017824 -9.100542 44.177004 9.469814 12.897258 -2.468626 0.000000 0.000000 0.000000 2.649749 -3.902710 -33.546797 -29.171919 -4.489432 74.735672 10.416267 17.203824 9.930801 0.000000 0.000000 0.000000 7.850482 -3.599533 16.144863 -10.463098 2.560950 -24.781655 3.317483 -0.511847 29.830864 10.409955 2.405208 -26.731723 0.000000 0.000000 0.000000 -20.203055 -7.020030 -10.867648 -44.985674 2.413763 -5.108466 -39.410938 -47.765072 12.449202 0.000000 0.000000 0.000000 28.354379 -15.170515 1.714478 52.783154 11.961312 -5.118068 28.537029 55.691468 28.244937 0.000000 0.000000 0.000000 
-0.541281 0.899138 0.348319 -13.293506 69.948500 -8.465291 0.235563 -0.369354 -4.120133 -3.413081 -9.496643 36.747327 7.651754 7.671850 -1.998040 0.000000 0.000000 0.000000 5.331587 -6.739310 -40.126805 -22.907369 -8.997456 68.710808 10.957129 23.600287 -0.523910 0.000000 0.000000 0.000000 9.734077 -4.223274 15.601081 -11.307199 2.059741 -26.083999 3.033172 -5.470323 29.693174 8.510198 3.739936 -26.899918 0.000000 0.000000 0.000000 -19.016156 -6.982976 -10.430082 -45.538569 1.823319 -5.290970 -50.015082 -52.141084 18.241622 0.000000 0.000000 0.000000 25.808891 -17.998697 -1.391225 53.320420 7.196208 -5.982914 34.816301 53.014963 31.296939 0.000000 0.000000 0.000000 
-0.479067 0.917240 0.378170 -19.300599 74.762498 -12.231633 3.144322 -1.084511 2.567232 0.558783 -5.478579 24.817162 2.003821 3.634239 3.982939 0.000000 0.000000 0.000000 7.907063 -8.187862 -43.587296 -11.850252 -12.194385 55.814657 10.170540 21.308083 -2.746295 0.000000 0.000000 0.000000 10.600058 -3.143031 11.018999 -12.248327 1.884613 -24.913693 4.097836 -10.381964 28.509346 6.210375 4.854247 -25.711233 0.000000 0.000000 0.000000 -17.411567 -5.086357 -10.362402 -49.238400 3.380139 -7.273375 -59.893789 -54.127919 23.586555 0.000000 0.000000 0.000000 20.988147 -18.157308 -3.148025 56.512367 1.073086 -6.561968 36.989591 52.629295 32.928451 0.000000 0.000000 0.000000 
-0.408024 0.941221 0.411156 -22.339469 78.370012 -13.810036 5.585114 -2.427557 6.163086 -0.645644 -2.997129 18.092058 -4.080896 8.037900 19.252120 0.000000 0.000000 0.000000 7.791531 -8.188982 -41.873809 -2.661645 -13.004141 42.674403 7.542857 13.708320 4.129606 0.000000 0.000000 0.000000 9.714193 -1.896716 6.606706 -10.285132 1.762132 -25.031090 1.981441 -13.508695 28.780112 3.983374 5.819775 -23.781367 0.000000 0.000000 0.000000 -16.668365 -3.394314 -10.995379 -49.935164 4.868994 -8.281152 -63.702134 -50.717059 22.980848 0.000000 0.000000 0.000000 17.043540 -16.832272 -3.455343 57.878410 -2.824095 -6.544006 37.582970 51.186671 31.772422 0.000000 0.000000 0.000000 
-0.334023 0.962488 0.443726 -21.430193 80.573068 -13.378890 7.155605 -3.140857 6.601656 -5.207395 -3.479303 21.279087 -2.584461 13.602062 31.093351 0.000000 0.000000 0.000000 7.359438 -5.975128 -35.870297 1.286557 -11.396335 32.432312 3.080852 6.353382 7.966420 0.000000 0.000000 0.000000 9.686010 -1.404912 3.852602 -11.594830 1.508480 -24.954851 3.071156 -12.224500 29.566886 3.545142 6.708423 -24.763930 0.000000 0.000000 0.000000 -16.420183 -3.341890 -11.964898 -47.923681 7.258432 -8.764312 -68.852401 -46.803709 22.367951 0.000000 0.000000 0.000000 13.778777 -17.404199 -4.654026 60.644327 -5.853404 -5.781252 33.715058 50.368019 28.812398 0.000000 0.000000 0.000000 
